<?xml version="1.0" encoding="utf-8"?>
<!-- Generator: Adobe Illustrator 15.0.0, SVG Export Plug-In . SVG Version: 6.00 Build 0)  -->
<!DOCTYPE svg PUBLIC "-//W3C//DTD SVG 1.1//EN" "http://www.w3.org/Graphics/SVG/1.1/DTD/svg11.dtd">
<svg version="1.1" id="Layer_2" xmlns="http://www.w3.org/2000/svg" xmlns:xlink="http://www.w3.org/1999/xlink" x="0px" y="0px"
	 width="612px" height="527.042px" viewBox="0 0 612 527.042" enable-background="new 0 0 612 527.042" xml:space="preserve">
<path fill="#FFFFFF" stroke="#2294C7" stroke-width="10" stroke-linecap="round" stroke-linejoin="round" stroke-miterlimit="10" d="
	M211.75,516.5c-3.248-0.075-8.5-0.5-12.75-2.5c-15.834-7.451-80-112-84-129S94.251,230.112,93.5,211c-0.982-24.98,32.5-48,49.5,12
	c10.325,36.441,20,81,20,81s3-185,5-263c1.053-41.059,45-47,51-4c0.309,2.214,19,182,19,182s31.5-50,68.5,4c0,0,44.5-34,74.5,18
	c0,0,44-31,59,24c9.739,35.711,9,101-16.396,220.499c-0.504,2.369-5.395,5.011-7.604,6.001
	C369.059,512.547,267.146,517.787,211.75,516.5z"/>
<g>
	<g>
		<line fill="none" stroke="#72BF44" stroke-width="7" stroke-miterlimit="10" x1="154.729" y1="29.689" x2="230.271" y2="29.918"/>
		<g>
			<polygon fill="#72BF44" points="155.954,20.74 155.9,38.599 147,29.643 			"/>
		</g>
		<g>
			<polygon fill="#72BF44" points="229.1,20.961 229.046,38.821 238,29.919 			"/>
		</g>
	</g>
</g>
<path d="M206.921,527.042"/>
</svg>
